<?xml version="1.0" encoding="utf-8"?>
<!-- Generator: Adobe Illustrator 23.0.2, SVG Export Plug-In . SVG Version: 6.00 Build 0)  -->
<svg version="1.1" id="Layer_1" xmlns="http://www.w3.org/2000/svg" xmlns:xlink="http://www.w3.org/1999/xlink" x="0px" y="0px"
	 viewBox="0 0 196.73 60" style="enable-background:new 0 0 196.73 60;" xml:space="preserve">
<style type="text/css">
	.st0{fill:#EE4036;}
</style>
<g>
	<g>
		<path class="st0" d="M14.55,48.63c-0.18,0-0.52-0.14-1.02-0.42L2.15,37.17c-0.55-0.52-0.94-0.9-1.17-1.15
			c-0.23-0.25-0.46-0.58-0.67-0.99C0.1,34.63,0,34.18,0,33.71v-1.59c0-0.47,0.11-0.92,0.33-1.34c0.22-0.42,0.43-0.73,0.63-0.94
			c0.2-0.2,0.61-0.6,1.23-1.18l11.35-11.33c0.29-0.22,0.61-0.32,0.98-0.32c0.39,0,0.71,0.14,0.96,0.4c0.25,0.27,0.37,0.6,0.37,0.99
			v1.81c0,0.19-0.01,0.37-0.04,0.53c-0.03,0.16-0.05,0.3-0.08,0.42c-0.03,0.12-0.09,0.26-0.19,0.42c-0.1,0.16-0.17,0.28-0.2,0.34
			c-0.03,0.06-0.12,0.18-0.29,0.36c-0.17,0.17-0.27,0.27-0.29,0.29c-0.03,0.02-0.16,0.14-0.39,0.36c-0.24,0.22-0.37,0.34-0.39,0.36
			L5.2,32.35c-0.24,0.19-0.35,0.39-0.35,0.58s0.12,0.39,0.35,0.58l8.76,8.74c0.08,0.06,0.21,0.18,0.39,0.34
			c0.18,0.16,0.31,0.28,0.37,0.34c0.06,0.06,0.17,0.17,0.31,0.31c0.14,0.14,0.24,0.25,0.29,0.32c0.05,0.08,0.12,0.18,0.22,0.32
			c0.09,0.14,0.15,0.27,0.18,0.39c0.03,0.12,0.05,0.26,0.08,0.42c0.03,0.16,0.04,0.34,0.04,0.53v2.04c0,0.37-0.12,0.69-0.37,0.95
			C15.23,48.5,14.92,48.63,14.55,48.63z"/>
		<path class="st0" d="M25.59,59.97c-0.24,0-0.35-0.28-0.35-0.84c0-0.02,0.01-0.06,0.02-0.13c0.01-0.06,0.02-0.12,0.02-0.16
			l9.15-57.7C34.57,0.38,34.8,0,35.14,0h5.36c0.26,0,0.39,0.27,0.39,0.81c0,0.15-0.01,0.26-0.04,0.32l-9.19,57.73
			C31.53,59.62,31.32,60,31.03,60L25.59,59.97z"/>
		<path class="st0" d="M49.58,53.33c-0.37,0-0.63-0.09-0.78-0.28c-0.16-0.18-0.24-0.6-0.24-1.25V8.29c0-0.65,0.08-1.06,0.24-1.25
			c0.16-0.18,0.42-0.28,0.78-0.28h5.67c0.36,0,0.63,0.09,0.78,0.28c0.16,0.18,0.24,0.6,0.24,1.25v17.23c0,0.19,0.05,0.37,0.14,0.52
			c0.09,0.15,0.18,0.23,0.25,0.23H68.4c0.08,0,0.17-0.08,0.27-0.24c0.1-0.16,0.16-0.34,0.16-0.53V8.29c0-0.63,0.08-1.04,0.25-1.23
			s0.42-0.29,0.76-0.29h5.75c0.34,0,0.59,0.09,0.74,0.28c0.16,0.18,0.24,0.6,0.24,1.25v43.52c0,0.65-0.08,1.06-0.24,1.25
			c-0.16,0.18-0.4,0.28-0.74,0.28h-5.75c-0.24,0-0.42-0.03-0.55-0.08c-0.13-0.05-0.25-0.2-0.35-0.44c-0.1-0.24-0.16-0.57-0.16-1
			V32.02c0-0.45-0.14-0.68-0.43-0.68H56.74c-0.26,0-0.39,0.23-0.39,0.68v19.78c0,0.63-0.08,1.04-0.25,1.23
			c-0.17,0.19-0.42,0.29-0.76,0.29H49.58z"/>
		<path class="st0" d="M91.25,53.33c-0.31,0-0.55-0.1-0.72-0.31c-0.17-0.2-0.25-0.62-0.25-1.25V12.79c0-0.54-0.14-0.81-0.43-0.81
			h-6.81c-0.26,0-0.45-0.02-0.57-0.05c-0.12-0.03-0.22-0.14-0.31-0.32c-0.09-0.18-0.14-0.47-0.14-0.86V8.19
			c0-0.58,0.08-0.97,0.24-1.15c0.16-0.18,0.42-0.28,0.78-0.28h22.11c0.34,0,0.59,0.09,0.74,0.28c0.16,0.18,0.24,0.57,0.24,1.15v2.56
			c0,0.54-0.07,0.88-0.22,1.02c-0.14,0.14-0.4,0.21-0.76,0.21h-6.69c-0.29,0-0.43,0.27-0.43,0.81v38.99c0,0.65-0.08,1.07-0.25,1.26
			c-0.17,0.19-0.42,0.29-0.76,0.29H91.25z"/>
		<path class="st0" d="M111.75,53.33c-0.63,0-0.94-0.53-0.94-1.59v-0.16l1.76-42.97c0.03-1.19,0.35-1.8,0.98-1.85h6.18
			c0.39,0.02,0.72,0.13,0.98,0.32c0.26,0.19,0.46,0.59,0.59,1.2l6.61,30.63c0.03,0.09,0.07,0.15,0.14,0.19
			c0.06,0.04,0.13,0.04,0.2,0c0.06-0.04,0.1-0.11,0.1-0.19l6.65-30.53c0.23-1.04,0.74-1.58,1.53-1.62h6.26
			c0.63,0.04,0.94,0.66,0.94,1.85l1.84,42.97v0.19c0,1.04-0.33,1.55-0.98,1.55h-4.3c-0.63,0-0.96-0.58-1.02-1.75l-1.21-33.25
			c0-0.13-0.04-0.21-0.12-0.23c-0.08-0.02-0.13,0.01-0.16,0.1l-7.12,33.58c-0.21,1.04-0.65,1.55-1.33,1.55h-2.54
			c-0.63,0-1.07-0.52-1.33-1.55l-6.93-33.42c-0.03-0.13-0.08-0.15-0.16-0.06c-0.03,0.04-0.04,0.11-0.04,0.19l-1.25,33.09
			c0,1.17-0.3,1.75-0.9,1.75H111.75z"/>
		<path class="st0" d="M154.86,53.33c-0.34,0-0.59-0.09-0.74-0.28c-0.16-0.18-0.24-0.6-0.24-1.25V8.29c0-0.65,0.08-1.06,0.24-1.25
			c0.16-0.18,0.4-0.28,0.74-0.28h5.75c0.34,0,0.59,0.09,0.74,0.28c0.16,0.18,0.24,0.6,0.24,1.25v39.18c0,0.47,0.18,0.71,0.55,0.71
			h10.17c0.34,0,0.59,0.08,0.74,0.23c0.16,0.15,0.23,0.5,0.23,1.04v2.59c0,0.54-0.08,0.89-0.23,1.05c-0.16,0.16-0.4,0.24-0.74,0.24
			H154.86z"/>
		<path class="st0" d="M182.17,48.63c-0.39,0-0.7-0.13-0.94-0.4c-0.24-0.27-0.35-0.61-0.35-1.02v-1.78c0-0.15,0.01-0.3,0.02-0.44
			c0.01-0.14,0.03-0.26,0.06-0.37c0.03-0.11,0.06-0.22,0.12-0.34c0.05-0.12,0.1-0.22,0.14-0.29c0.04-0.07,0.1-0.17,0.2-0.29
			c0.09-0.12,0.16-0.21,0.2-0.26c0.04-0.05,0.12-0.15,0.24-0.28c0.12-0.13,0.2-0.22,0.25-0.26c0.05-0.04,0.16-0.13,0.31-0.28
			c0.16-0.14,0.26-0.24,0.31-0.31l8.8-9.03c0.21-0.19,0.31-0.4,0.31-0.62c0-0.22-0.12-0.4-0.35-0.55l-8.72-8.74
			c-0.08-0.09-0.23-0.22-0.45-0.4c-0.22-0.18-0.37-0.31-0.43-0.39c-0.07-0.08-0.18-0.19-0.33-0.34c-0.16-0.15-0.25-0.28-0.29-0.37
			c-0.04-0.1-0.1-0.23-0.18-0.39c-0.08-0.16-0.13-0.33-0.16-0.5c-0.03-0.17-0.04-0.37-0.04-0.58v-2.07c0-0.39,0.12-0.71,0.35-0.95
			c0.23-0.25,0.55-0.37,0.94-0.37c0.26,0,0.59,0.13,0.98,0.39l11.39,11.07c0.6,0.56,1,0.95,1.21,1.17c0.21,0.22,0.42,0.53,0.65,0.94
			c0.22,0.41,0.33,0.85,0.33,1.33v1.59c0,0.17-0.01,0.33-0.02,0.47c-0.01,0.14-0.05,0.29-0.12,0.44c-0.07,0.15-0.11,0.28-0.14,0.37
			c-0.03,0.1-0.1,0.22-0.23,0.37c-0.13,0.15-0.21,0.26-0.24,0.32s-0.13,0.19-0.31,0.37c-0.18,0.18-0.29,0.3-0.33,0.34
			c-0.04,0.04-0.18,0.17-0.41,0.39c-0.23,0.22-0.38,0.35-0.43,0.39l-11.31,11.33C182.82,48.52,182.48,48.63,182.17,48.63z"/>
	</g>
</g>
</svg>
